<svg viewBox="0 0 1042 826" width="100%" xmlns="http://www.w3.org/2000/svg" font-family="Helvetica,Arial,sans-serif"><circle cx="188.0" cy="20" r="2.6" fill="#1a8a3c" stroke="#ffffff" stroke-width="0.7"/><text x="195.0" y="23.0" font-family="Helvetica,Arial,sans-serif" font-size="8" fill="#6b7280" text-anchor="start" font-weight="normal">green dot = actual result (played);  unmarked = model projection</text><rect x="8.0" y="44.0" width="132" height="21" rx="2" fill="#FBF1D6" stroke="#C8A24B" stroke-width="1"/><text x="14.0" y="58.5" font-family="Helvetica,Arial,sans-serif" font-size="8.4" fill="#0B1F3A" text-anchor="start" font-weight="bold">(1) Rawhides</text><rect x="120.0" y="44.0" width="20" height="21" rx="0" fill="#C8A24B" stroke="#c9cdd4" stroke-width="0.6"/><text x="130.0" y="58.5" font-family="Helvetica,Arial,sans-serif" font-size="8.4" fill="#ffffff" text-anchor="middle" font-weight="bold">9</text><rect x="8.0" y="65.0" width="132" height="21" rx="2" fill="#ffffff" stroke="#c9cdd4" stroke-width="0.8"/><text x="14.0" y="79.5" font-family="Helvetica,Arial,sans-serif" font-size="8.4" fill="#0B1F3A" text-anchor="start" font-weight="normal">(16) Lower Haight</text><rect x="120.0" y="65.0" width="20" height="21" rx="0" fill="#eef0f3" stroke="#c9cdd4" stroke-width="0.6"/><text x="130.0" y="79.5" font-family="Helvetica,Arial,sans-serif" font-size="8.4" fill="#999" text-anchor="middle" font-weight="bold">3</text><circle cx="11.5" cy="47.5" r="2.6" fill="#1a8a3c" stroke="#ffffff" stroke-width="0.7"/><rect x="8.0" y="104.0" width="132" height="21" rx="2" fill="#FBF1D6" stroke="#C8A24B" stroke-width="1"/><text x="14.0" y="118.5" font-family="Helvetica,Arial,sans-serif" font-size="8.4" fill="#0B1F3A" text-anchor="start" font-weight="bold">(8) Marcelo's</text><rect x="120.0" y="104.0" width="20" height="21" rx="0" fill="#C8A24B" stroke="#c9cdd4" stroke-width="0.6"/><text x="130.0" y="118.5" font-family="Helvetica,Arial,sans-serif" font-size="8.4" fill="#ffffff" text-anchor="middle" font-weight="bold">9</text><rect x="8.0" y="125.0" width="132" height="21" rx="2" fill="#ffffff" stroke="#c9cdd4" stroke-width="0.8"/><text x="14.0" y="139.5" font-family="Helvetica,Arial,sans-serif" font-size="8.4" fill="#0B1F3A" text-anchor="start" font-weight="normal">(9) Gino &amp; Carlo</text><rect x="120.0" y="125.0" width="20" height="21" rx="0" fill="#eef0f3" stroke="#c9cdd4" stroke-width="0.6"/><text x="130.0" y="139.5" font-family="Helvetica,Arial,sans-serif" font-size="8.4" fill="#999" text-anchor="middle" font-weight="bold">6</text><circle cx="11.5" cy="107.5" r="2.6" fill="#1a8a3c" stroke="#ffffff" stroke-width="0.7"/><rect x="8.0" y="164.0" width="132" height="21" rx="2" fill="#ffffff" stroke="#c9cdd4" stroke-width="0.8"/><text x="14.0" y="178.5" font-family="Helvetica,Arial,sans-serif" font-size="8.4" fill="#0B1F3A" text-anchor="start" font-weight="normal">(5) Happy HALLers</text><rect x="120.0" y="164.0" width="20" height="21" rx="0" fill="#eef0f3" stroke="#c9cdd4" stroke-width="0.6"/><text x="130.0" y="178.5" font-family="Helvetica,Arial,sans-serif" font-size="8.4" fill="#999" text-anchor="middle" font-weight="bold">8</text><rect x="8.0" y="185.0" width="132" height="21" rx="2" fill="#FBF1D6" stroke="#C8A24B" stroke-width="1"/><text x="14.0" y="199.5" font-family="Helvetica,Arial,sans-serif" font-size="8.4" fill="#0B1F3A" text-anchor="start" font-weight="bold">(12) Route 101</text><rect x="120.0" y="185.0" width="20" height="21" rx="0" fill="#C8A24B" stroke="#c9cdd4" stroke-width="0.6"/><text x="130.0" y="199.5" font-family="Helvetica,Arial,sans-serif" font-size="8.4" fill="#ffffff" text-anchor="middle" font-weight="bold">9</text><circle cx="11.5" cy="167.5" r="2.6" fill="#1a8a3c" stroke="#ffffff" stroke-width="0.7"/><rect x="8.0" y="224.0" width="132" height="21" rx="2" fill="#FBF1D6" stroke="#C8A24B" stroke-width="1"/><text x="14.0" y="238.5" font-family="Helvetica,Arial,sans-serif" font-size="8.4" fill="#0B1F3A" text-anchor="start" font-weight="bold">(4) Hall Monitors</text><rect x="120.0" y="224.0" width="20" height="21" rx="0" fill="#C8A24B" stroke="#c9cdd4" stroke-width="0.6"/><text x="130.0" y="238.5" font-family="Helvetica,Arial,sans-serif" font-size="8.4" fill="#ffffff" text-anchor="middle" font-weight="bold">9</text><rect x="8.0" y="245.0" width="132" height="21" rx="2" fill="#ffffff" stroke="#c9cdd4" stroke-width="0.8"/><text x="14.0" y="259.5" font-family="Helvetica,Arial,sans-serif" font-size="8.4" fill="#0B1F3A" text-anchor="start" font-weight="normal">(13) Karl's</text><rect x="120.0" y="245.0" width="20" height="21" rx="0" fill="#eef0f3" stroke="#c9cdd4" stroke-width="0.6"/><text x="130.0" y="259.5" font-family="Helvetica,Arial,sans-serif" font-size="8.4" fill="#999" text-anchor="middle" font-weight="bold">2</text><circle cx="11.5" cy="227.5" r="2.6" fill="#1a8a3c" stroke="#ffffff" stroke-width="0.7"/><rect x="8.0" y="284.0" width="132" height="21" rx="2" fill="#FBF1D6" stroke="#C8A24B" stroke-width="1"/><text x="14.0" y="298.5" font-family="Helvetica,Arial,sans-serif" font-size="8.4" fill="#0B1F3A" text-anchor="start" font-weight="bold">(6) Pilsner</text><rect x="120.0" y="284.0" width="20" height="21" rx="0" fill="#C8A24B" stroke="#c9cdd4" stroke-width="0.6"/><text x="130.0" y="298.5" font-family="Helvetica,Arial,sans-serif" font-size="8.4" fill="#ffffff" text-anchor="middle" font-weight="bold">9</text><rect x="8.0" y="305.0" width="132" height="21" rx="2" fill="#ffffff" stroke="#c9cdd4" stroke-width="0.8"/><text x="14.0" y="319.5" font-family="Helvetica,Arial,sans-serif" font-size="8.4" fill="#0B1F3A" text-anchor="start" font-weight="normal">(11) Friends Cues</text><rect x="120.0" y="305.0" width="20" height="21" rx="0" fill="#eef0f3" stroke="#c9cdd4" stroke-width="0.6"/><text x="130.0" y="319.5" font-family="Helvetica,Arial,sans-serif" font-size="8.4" fill="#999" text-anchor="middle" font-weight="bold">6</text><circle cx="11.5" cy="287.5" r="2.6" fill="#1a8a3c" stroke="#ffffff" stroke-width="0.7"/><rect x="8.0" y="344.0" width="132" height="21" rx="2" fill="#FBF1D6" stroke="#C8A24B" stroke-width="1"/><text x="14.0" y="358.5" font-family="Helvetica,Arial,sans-serif" font-size="8.4" fill="#0B1F3A" text-anchor="start" font-weight="bold">(3) Bus Stop</text><rect x="120.0" y="344.0" width="20" height="21" rx="0" fill="#C8A24B" stroke="#c9cdd4" stroke-width="0.6"/><text x="130.0" y="358.5" font-family="Helvetica,Arial,sans-serif" font-size="8.4" fill="#ffffff" text-anchor="middle" font-weight="bold">9</text><rect x="8.0" y="365.0" width="132" height="21" rx="2" fill="#ffffff" stroke="#c9cdd4" stroke-width="0.8"/><text x="14.0" y="379.5" font-family="Helvetica,Arial,sans-serif" font-size="8.4" fill="#0B1F3A" text-anchor="start" font-weight="normal">(14) Temple</text><rect x="120.0" y="365.0" width="20" height="21" rx="0" fill="#eef0f3" stroke="#c9cdd4" stroke-width="0.6"/><text x="130.0" y="379.5" font-family="Helvetica,Arial,sans-serif" font-size="8.4" fill="#999" text-anchor="middle" font-weight="bold">8</text><circle cx="11.5" cy="347.5" r="2.6" fill="#1a8a3c" stroke="#ffffff" stroke-width="0.7"/><rect x="8.0" y="404.0" width="132" height="21" rx="2" fill="#FBF1D6" stroke="#C8A24B" stroke-width="1"/><text x="14.0" y="418.5" font-family="Helvetica,Arial,sans-serif" font-size="8.4" fill="#0B1F3A" text-anchor="start" font-weight="bold">(7) Pocket Fizz</text><rect x="120.0" y="404.0" width="20" height="21" rx="0" fill="#C8A24B" stroke="#c9cdd4" stroke-width="0.6"/><text x="130.0" y="418.5" font-family="Helvetica,Arial,sans-serif" font-size="8.4" fill="#ffffff" text-anchor="middle" font-weight="bold">9</text><rect x="8.0" y="425.0" width="132" height="21" rx="2" fill="#ffffff" stroke="#c9cdd4" stroke-width="0.8"/><text x="14.0" y="439.5" font-family="Helvetica,Arial,sans-serif" font-size="8.4" fill="#0B1F3A" text-anchor="start" font-weight="normal">(10) LH Glue Fac.</text><rect x="120.0" y="425.0" width="20" height="21" rx="0" fill="#eef0f3" stroke="#c9cdd4" stroke-width="0.6"/><text x="130.0" y="439.5" font-family="Helvetica,Arial,sans-serif" font-size="8.4" fill="#999" text-anchor="middle" font-weight="bold">6</text><circle cx="11.5" cy="407.5" r="2.6" fill="#1a8a3c" stroke="#ffffff" stroke-width="0.7"/><rect x="8.0" y="464.0" width="132" height="21" rx="2" fill="#FBF1D6" stroke="#C8A24B" stroke-width="1"/><text x="14.0" y="478.5" font-family="Helvetica,Arial,sans-serif" font-size="8.4" fill="#0B1F3A" text-anchor="start" font-weight="bold">(2) El Farolito</text><rect x="120.0" y="464.0" width="20" height="21" rx="0" fill="#C8A24B" stroke="#c9cdd4" stroke-width="0.6"/><text x="130.0" y="478.5" font-family="Helvetica,Arial,sans-serif" font-size="8.4" fill="#ffffff" text-anchor="middle" font-weight="bold">9</text><rect x="8.0" y="485.0" width="132" height="21" rx="2" fill="#ffffff" stroke="#c9cdd4" stroke-width="0.8"/><text x="14.0" y="499.5" font-family="Helvetica,Arial,sans-serif" font-size="8.4" fill="#0B1F3A" text-anchor="start" font-weight="normal">(15) Bus Slop</text><rect x="120.0" y="485.0" width="20" height="21" rx="0" fill="#eef0f3" stroke="#c9cdd4" stroke-width="0.6"/><text x="130.0" y="499.5" font-family="Helvetica,Arial,sans-serif" font-size="8.4" fill="#999" text-anchor="middle" font-weight="bold">8</text><circle cx="11.5" cy="467.5" r="2.6" fill="#1a8a3c" stroke="#ffffff" stroke-width="0.7"/><rect x="186.0" y="63.5" width="132" height="21" rx="2" fill="#FBF1D6" stroke="#C8A24B" stroke-width="1"/><text x="192.0" y="78.0" font-family="Helvetica,Arial,sans-serif" font-size="8.4" fill="#0B1F3A" text-anchor="start" font-weight="bold">(1) Rawhides</text><rect x="298.0" y="63.5" width="20" height="21" rx="0" fill="#C8A24B" stroke="#c9cdd4" stroke-width="0.6"/><text x="308.0" y="78.0" font-family="Helvetica,Arial,sans-serif" font-size="8.4" fill="#ffffff" text-anchor="middle" font-weight="bold">9</text><rect x="186.0" y="84.5" width="132" height="21" rx="2" fill="#ffffff" stroke="#c9cdd4" stroke-width="0.8"/><text x="192.0" y="99.0" font-family="Helvetica,Arial,sans-serif" font-size="8.4" fill="#0B1F3A" text-anchor="start" font-weight="normal">(8) Marcelo's</text><rect x="298.0" y="84.5" width="20" height="21" rx="0" fill="#eef0f3" stroke="#c9cdd4" stroke-width="0.6"/><text x="308.0" y="99.0" font-family="Helvetica,Arial,sans-serif" font-size="8.4" fill="#999" text-anchor="middle" font-weight="bold">6</text><path d="M140.0,54.5 H163.0 V74.0 H186.0" stroke="#c9cdd4" stroke-width="1" fill="none"/><path d="M140.0,114.5 H163.0 V95.0 H186.0" stroke="#c9cdd4" stroke-width="1" fill="none"/><rect x="186.0" y="194.0" width="132" height="21" rx="2" fill="#ffffff" stroke="#c9cdd4" stroke-width="0.8"/><text x="192.0" y="208.5" font-family="Helvetica,Arial,sans-serif" font-size="8.4" fill="#0B1F3A" text-anchor="start" font-weight="normal">(12) Route 101</text><rect x="298.0" y="194.0" width="20" height="21" rx="0" fill="#eef0f3" stroke="#c9cdd4" stroke-width="0.6"/><text x="308.0" y="208.5" font-family="Helvetica,Arial,sans-serif" font-size="8.4" fill="#999" text-anchor="middle" font-weight="bold">5</text><rect x="186.0" y="215.0" width="132" height="21" rx="2" fill="#FBF1D6" stroke="#C8A24B" stroke-width="1"/><text x="192.0" y="229.5" font-family="Helvetica,Arial,sans-serif" font-size="8.4" fill="#0B1F3A" text-anchor="start" font-weight="bold">(4) Hall Monitors</text><rect x="298.0" y="215.0" width="20" height="21" rx="0" fill="#C8A24B" stroke="#c9cdd4" stroke-width="0.6"/><text x="308.0" y="229.5" font-family="Helvetica,Arial,sans-serif" font-size="8.4" fill="#ffffff" text-anchor="middle" font-weight="bold">9</text><path d="M140.0,195.5 H163.0 V204.5 H186.0" stroke="#c9cdd4" stroke-width="1" fill="none"/><path d="M140.0,234.5 H163.0 V225.5 H186.0" stroke="#c9cdd4" stroke-width="1" fill="none"/><rect x="186.0" y="303.5" width="132" height="21" rx="2" fill="#FBF1D6" stroke="#C8A24B" stroke-width="1"/><text x="192.0" y="318.0" font-family="Helvetica,Arial,sans-serif" font-size="8.4" fill="#0B1F3A" text-anchor="start" font-weight="bold">(6) Pilsner</text><rect x="298.0" y="303.5" width="20" height="21" rx="0" fill="#C8A24B" stroke="#c9cdd4" stroke-width="0.6"/><text x="308.0" y="318.0" font-family="Helvetica,Arial,sans-serif" font-size="8.4" fill="#ffffff" text-anchor="middle" font-weight="bold">9</text><rect x="186.0" y="324.5" width="132" height="21" rx="2" fill="#ffffff" stroke="#c9cdd4" stroke-width="0.8"/><text x="192.0" y="339.0" font-family="Helvetica,Arial,sans-serif" font-size="8.4" fill="#0B1F3A" text-anchor="start" font-weight="normal">(3) Bus Stop</text><rect x="298.0" y="324.5" width="20" height="21" rx="0" fill="#eef0f3" stroke="#c9cdd4" stroke-width="0.6"/><text x="308.0" y="339.0" font-family="Helvetica,Arial,sans-serif" font-size="8.4" fill="#999" text-anchor="middle" font-weight="bold">8</text><path d="M140.0,294.5 H163.0 V314.0 H186.0" stroke="#c9cdd4" stroke-width="1" fill="none"/><path d="M140.0,354.5 H163.0 V335.0 H186.0" stroke="#c9cdd4" stroke-width="1" fill="none"/><rect x="186.0" y="423.5" width="132" height="21" rx="2" fill="#ffffff" stroke="#c9cdd4" stroke-width="0.8"/><text x="192.0" y="438.0" font-family="Helvetica,Arial,sans-serif" font-size="8.4" fill="#0B1F3A" text-anchor="start" font-weight="normal">(7) Pocket Fizz</text><rect x="298.0" y="423.5" width="20" height="21" rx="0" fill="#eef0f3" stroke="#c9cdd4" stroke-width="0.6"/><text x="308.0" y="438.0" font-family="Helvetica,Arial,sans-serif" font-size="8.4" fill="#999" text-anchor="middle" font-weight="bold">6</text><rect x="186.0" y="444.5" width="132" height="21" rx="2" fill="#FBF1D6" stroke="#C8A24B" stroke-width="1"/><text x="192.0" y="459.0" font-family="Helvetica,Arial,sans-serif" font-size="8.4" fill="#0B1F3A" text-anchor="start" font-weight="bold">(2) El Farolito</text><rect x="298.0" y="444.5" width="20" height="21" rx="0" fill="#C8A24B" stroke="#c9cdd4" stroke-width="0.6"/><text x="308.0" y="459.0" font-family="Helvetica,Arial,sans-serif" font-size="8.4" fill="#ffffff" text-anchor="middle" font-weight="bold">9</text><path d="M140.0,414.5 H163.0 V434.0 H186.0" stroke="#c9cdd4" stroke-width="1" fill="none"/><path d="M140.0,474.5 H163.0 V455.0 H186.0" stroke="#c9cdd4" stroke-width="1" fill="none"/><rect x="364.0" y="128.8" width="132" height="21" rx="2" fill="#FBF1D6" stroke="#C8A24B" stroke-width="1"/><text x="370.0" y="143.2" font-family="Helvetica,Arial,sans-serif" font-size="8.4" fill="#0B1F3A" text-anchor="start" font-weight="bold">(1) Rawhides</text><rect x="476.0" y="128.8" width="20" height="21" rx="0" fill="#C8A24B" stroke="#c9cdd4" stroke-width="0.6"/><text x="486.0" y="143.2" font-family="Helvetica,Arial,sans-serif" font-size="8.4" fill="#ffffff" text-anchor="middle" font-weight="bold">9</text><rect x="364.0" y="149.8" width="132" height="21" rx="2" fill="#ffffff" stroke="#c9cdd4" stroke-width="0.8"/><text x="370.0" y="164.2" font-family="Helvetica,Arial,sans-serif" font-size="8.4" fill="#0B1F3A" text-anchor="start" font-weight="normal">(4) Hall Monitors</text><rect x="476.0" y="149.8" width="20" height="21" rx="0" fill="#eef0f3" stroke="#c9cdd4" stroke-width="0.6"/><text x="486.0" y="164.2" font-family="Helvetica,Arial,sans-serif" font-size="8.4" fill="#999" text-anchor="middle" font-weight="bold">7</text><path d="M318.0,74.0 H341.0 V139.2 H364.0" stroke="#c9cdd4" stroke-width="1" fill="none"/><path d="M318.0,225.5 H341.0 V160.2 H364.0" stroke="#c9cdd4" stroke-width="1" fill="none"/><rect x="364.0" y="363.5" width="132" height="21" rx="2" fill="#FBF1D6" stroke="#C8A24B" stroke-width="1"/><text x="370.0" y="378.0" font-family="Helvetica,Arial,sans-serif" font-size="8.4" fill="#0B1F3A" text-anchor="start" font-weight="bold">(6) Pilsner</text><rect x="476.0" y="363.5" width="20" height="21" rx="0" fill="#C8A24B" stroke="#c9cdd4" stroke-width="0.6"/><text x="486.0" y="378.0" font-family="Helvetica,Arial,sans-serif" font-size="8.4" fill="#ffffff" text-anchor="middle" font-weight="bold">9</text><rect x="364.0" y="384.5" width="132" height="21" rx="2" fill="#ffffff" stroke="#c9cdd4" stroke-width="0.8"/><text x="370.0" y="399.0" font-family="Helvetica,Arial,sans-serif" font-size="8.4" fill="#0B1F3A" text-anchor="start" font-weight="normal">(2) El Farolito</text><rect x="476.0" y="384.5" width="20" height="21" rx="0" fill="#eef0f3" stroke="#c9cdd4" stroke-width="0.6"/><text x="486.0" y="399.0" font-family="Helvetica,Arial,sans-serif" font-size="8.4" fill="#999" text-anchor="middle" font-weight="bold">8</text><path d="M318.0,314.0 H341.0 V374.0 H364.0" stroke="#c9cdd4" stroke-width="1" fill="none"/><path d="M318.0,455.0 H341.0 V395.0 H364.0" stroke="#c9cdd4" stroke-width="1" fill="none"/><rect x="542.0" y="235.6" width="132" height="21" rx="2" fill="#FBF1D6" stroke="#C8A24B" stroke-width="1"/><text x="548.0" y="250.1" font-family="Helvetica,Arial,sans-serif" font-size="8.4" fill="#0B1F3A" text-anchor="start" font-weight="bold">(1) Rawhides</text><rect x="654.0" y="235.6" width="20" height="21" rx="0" fill="#C8A24B" stroke="#c9cdd4" stroke-width="0.6"/><text x="664.0" y="250.1" font-family="Helvetica,Arial,sans-serif" font-size="8.4" fill="#ffffff" text-anchor="middle" font-weight="bold">9</text><rect x="542.0" y="256.6" width="132" height="21" rx="2" fill="#ffffff" stroke="#c9cdd4" stroke-width="0.8"/><text x="548.0" y="271.1" font-family="Helvetica,Arial,sans-serif" font-size="8.4" fill="#0B1F3A" text-anchor="start" font-weight="normal">(6) Pilsner</text><rect x="654.0" y="256.6" width="20" height="21" rx="0" fill="#eef0f3" stroke="#c9cdd4" stroke-width="0.6"/><text x="664.0" y="271.1" font-family="Helvetica,Arial,sans-serif" font-size="8.4" fill="#999" text-anchor="middle" font-weight="bold">7</text><path d="M496.0,139.2 H519.0 V246.1 H542.0" stroke="#c9cdd4" stroke-width="1" fill="none"/><path d="M496.0,374.0 H519.0 V267.1 H542.0" stroke="#c9cdd4" stroke-width="1" fill="none"/><text x="8.0" y="30.0" font-family="Helvetica,Arial,sans-serif" font-size="9" fill="#6b7280" text-anchor="start" font-weight="bold">Round 1</text><text x="186.0" y="30.0" font-family="Helvetica,Arial,sans-serif" font-size="9" fill="#6b7280" text-anchor="start" font-weight="bold">Quarterfinals</text><text x="364.0" y="30.0" font-family="Helvetica,Arial,sans-serif" font-size="9" fill="#6b7280" text-anchor="start" font-weight="bold">Semifinals</text><text x="542.0" y="30.0" font-family="Helvetica,Arial,sans-serif" font-size="9" fill="#6b7280" text-anchor="start" font-weight="bold">WB Final</text><text x="8.0" y="22.0" font-family="Helvetica,Arial,sans-serif" font-size="11" fill="#0B1F3A" text-anchor="start" font-weight="bold">Winners' bracket  ·  A-side</text><text x="8.0" y="546.0" font-family="Helvetica,Arial,sans-serif" font-size="11" fill="#9C6B2E" text-anchor="start" font-weight="bold">Losers' bracket  ·  B-side</text><text x="8.0" y="566.0" font-family="Helvetica,Arial,sans-serif" font-size="9" fill="#6b7280" text-anchor="start" font-weight="bold">LB R1</text><text x="186.0" y="566.0" font-family="Helvetica,Arial,sans-serif" font-size="9" fill="#6b7280" text-anchor="start" font-weight="bold">LB R2</text><text x="364.0" y="566.0" font-family="Helvetica,Arial,sans-serif" font-size="9" fill="#6b7280" text-anchor="start" font-weight="bold">LB R3</text><text x="542.0" y="566.0" font-family="Helvetica,Arial,sans-serif" font-size="9" fill="#6b7280" text-anchor="start" font-weight="bold">LB R4</text><text x="720.0" y="566.0" font-family="Helvetica,Arial,sans-serif" font-size="9" fill="#6b7280" text-anchor="start" font-weight="bold">LB R5</text><rect x="8.0" y="582.0" width="132" height="21" rx="2" fill="#ffffff" stroke="#c9cdd4" stroke-width="0.8"/><text x="14.0" y="596.5" font-family="Helvetica,Arial,sans-serif" font-size="8.4" fill="#0B1F3A" text-anchor="start" font-weight="normal">(16) Lower Haight</text><rect x="120.0" y="582.0" width="20" height="21" rx="0" fill="#eef0f3" stroke="#c9cdd4" stroke-width="0.6"/><text x="130.0" y="596.5" font-family="Helvetica,Arial,sans-serif" font-size="8.4" fill="#999" text-anchor="middle" font-weight="bold">5</text><rect x="8.0" y="603.0" width="132" height="21" rx="2" fill="#FBF1D6" stroke="#C8A24B" stroke-width="1"/><text x="14.0" y="617.5" font-family="Helvetica,Arial,sans-serif" font-size="8.4" fill="#0B1F3A" text-anchor="start" font-weight="bold">(9) Gino &amp; Carlo</text><rect x="120.0" y="603.0" width="20" height="21" rx="0" fill="#C8A24B" stroke="#c9cdd4" stroke-width="0.6"/><text x="130.0" y="617.5" font-family="Helvetica,Arial,sans-serif" font-size="8.4" fill="#ffffff" text-anchor="middle" font-weight="bold">9</text><rect x="8.0" y="638.0" width="132" height="21" rx="2" fill="#FBF1D6" stroke="#C8A24B" stroke-width="1"/><text x="14.0" y="652.5" font-family="Helvetica,Arial,sans-serif" font-size="8.4" fill="#0B1F3A" text-anchor="start" font-weight="bold">(5) Happy HALLers</text><rect x="120.0" y="638.0" width="20" height="21" rx="0" fill="#C8A24B" stroke="#c9cdd4" stroke-width="0.6"/><text x="130.0" y="652.5" font-family="Helvetica,Arial,sans-serif" font-size="8.4" fill="#ffffff" text-anchor="middle" font-weight="bold">9</text><rect x="8.0" y="659.0" width="132" height="21" rx="2" fill="#ffffff" stroke="#c9cdd4" stroke-width="0.8"/><text x="14.0" y="673.5" font-family="Helvetica,Arial,sans-serif" font-size="8.4" fill="#0B1F3A" text-anchor="start" font-weight="normal">(13) Karl's</text><rect x="120.0" y="659.0" width="20" height="21" rx="0" fill="#eef0f3" stroke="#c9cdd4" stroke-width="0.6"/><text x="130.0" y="673.5" font-family="Helvetica,Arial,sans-serif" font-size="8.4" fill="#999" text-anchor="middle" font-weight="bold">5</text><rect x="8.0" y="694.0" width="132" height="21" rx="2" fill="#ffffff" stroke="#c9cdd4" stroke-width="0.8"/><text x="14.0" y="708.5" font-family="Helvetica,Arial,sans-serif" font-size="8.4" fill="#0B1F3A" text-anchor="start" font-weight="normal">(11) Friends Cues</text><rect x="120.0" y="694.0" width="20" height="21" rx="0" fill="#eef0f3" stroke="#c9cdd4" stroke-width="0.6"/><text x="130.0" y="708.5" font-family="Helvetica,Arial,sans-serif" font-size="8.4" fill="#999" text-anchor="middle" font-weight="bold">8</text><rect x="8.0" y="715.0" width="132" height="21" rx="2" fill="#FBF1D6" stroke="#C8A24B" stroke-width="1"/><text x="14.0" y="729.5" font-family="Helvetica,Arial,sans-serif" font-size="8.4" fill="#0B1F3A" text-anchor="start" font-weight="bold">(14) Temple</text><rect x="120.0" y="715.0" width="20" height="21" rx="0" fill="#C8A24B" stroke="#c9cdd4" stroke-width="0.6"/><text x="130.0" y="729.5" font-family="Helvetica,Arial,sans-serif" font-size="8.4" fill="#ffffff" text-anchor="middle" font-weight="bold">9</text><rect x="8.0" y="750.0" width="132" height="21" rx="2" fill="#FBF1D6" stroke="#C8A24B" stroke-width="1"/><text x="14.0" y="764.5" font-family="Helvetica,Arial,sans-serif" font-size="8.4" fill="#0B1F3A" text-anchor="start" font-weight="bold">(10) LH Glue Fac.</text><rect x="120.0" y="750.0" width="20" height="21" rx="0" fill="#C8A24B" stroke="#c9cdd4" stroke-width="0.6"/><text x="130.0" y="764.5" font-family="Helvetica,Arial,sans-serif" font-size="8.4" fill="#ffffff" text-anchor="middle" font-weight="bold">9</text><rect x="8.0" y="771.0" width="132" height="21" rx="2" fill="#ffffff" stroke="#c9cdd4" stroke-width="0.8"/><text x="14.0" y="785.5" font-family="Helvetica,Arial,sans-serif" font-size="8.4" fill="#0B1F3A" text-anchor="start" font-weight="normal">(15) Bus Slop</text><rect x="120.0" y="771.0" width="20" height="21" rx="0" fill="#eef0f3" stroke="#c9cdd4" stroke-width="0.6"/><text x="130.0" y="785.5" font-family="Helvetica,Arial,sans-serif" font-size="8.4" fill="#999" text-anchor="middle" font-weight="bold">8</text><rect x="186.0" y="582.0" width="132" height="21" rx="2" fill="#ffffff" stroke="#c9cdd4" stroke-width="0.8"/><text x="192.0" y="596.5" font-family="Helvetica,Arial,sans-serif" font-size="8.4" fill="#0B1F3A" text-anchor="start" font-weight="normal">(9) Gino &amp; Carlo</text><rect x="298.0" y="582.0" width="20" height="21" rx="0" fill="#eef0f3" stroke="#c9cdd4" stroke-width="0.6"/><text x="308.0" y="596.5" font-family="Helvetica,Arial,sans-serif" font-size="8.4" fill="#999" text-anchor="middle" font-weight="bold">8</text><rect x="186.0" y="603.0" width="132" height="21" rx="2" fill="#FBF1D6" stroke="#C8A24B" stroke-width="1"/><text x="192.0" y="617.5" font-family="Helvetica,Arial,sans-serif" font-size="8.4" fill="#0B1F3A" text-anchor="start" font-weight="bold">(7) Pocket Fizz</text><rect x="298.0" y="603.0" width="20" height="21" rx="0" fill="#C8A24B" stroke="#c9cdd4" stroke-width="0.6"/><text x="308.0" y="617.5" font-family="Helvetica,Arial,sans-serif" font-size="8.4" fill="#ffffff" text-anchor="middle" font-weight="bold">9</text><path d="M140.0,613.5 H163.0 V592.5 H186.0" stroke="#c9cdd4" stroke-width="1" fill="none"/><rect x="186.0" y="638.0" width="132" height="21" rx="2" fill="#ffffff" stroke="#c9cdd4" stroke-width="0.8"/><text x="192.0" y="652.5" font-family="Helvetica,Arial,sans-serif" font-size="8.4" fill="#0B1F3A" text-anchor="start" font-weight="normal">(5) Happy HALLers</text><rect x="298.0" y="638.0" width="20" height="21" rx="0" fill="#eef0f3" stroke="#c9cdd4" stroke-width="0.6"/><text x="308.0" y="652.5" font-family="Helvetica,Arial,sans-serif" font-size="8.4" fill="#999" text-anchor="middle" font-weight="bold">7</text><rect x="186.0" y="659.0" width="132" height="21" rx="2" fill="#FBF1D6" stroke="#C8A24B" stroke-width="1"/><text x="192.0" y="673.5" font-family="Helvetica,Arial,sans-serif" font-size="8.4" fill="#0B1F3A" text-anchor="start" font-weight="bold">(3) Bus Stop</text><rect x="298.0" y="659.0" width="20" height="21" rx="0" fill="#C8A24B" stroke="#c9cdd4" stroke-width="0.6"/><text x="308.0" y="673.5" font-family="Helvetica,Arial,sans-serif" font-size="8.4" fill="#ffffff" text-anchor="middle" font-weight="bold">9</text><path d="M140.0,648.5 H163.0 V648.5 H186.0" stroke="#c9cdd4" stroke-width="1" fill="none"/><rect x="186.0" y="694.0" width="132" height="21" rx="2" fill="#FBF1D6" stroke="#C8A24B" stroke-width="1"/><text x="192.0" y="708.5" font-family="Helvetica,Arial,sans-serif" font-size="8.4" fill="#0B1F3A" text-anchor="start" font-weight="bold">(14) Temple</text><rect x="298.0" y="694.0" width="20" height="21" rx="0" fill="#C8A24B" stroke="#c9cdd4" stroke-width="0.6"/><text x="308.0" y="708.5" font-family="Helvetica,Arial,sans-serif" font-size="8.4" fill="#ffffff" text-anchor="middle" font-weight="bold">9</text><rect x="186.0" y="715.0" width="132" height="21" rx="2" fill="#ffffff" stroke="#c9cdd4" stroke-width="0.8"/><text x="192.0" y="729.5" font-family="Helvetica,Arial,sans-serif" font-size="8.4" fill="#0B1F3A" text-anchor="start" font-weight="normal">(12) Route 101</text><rect x="298.0" y="715.0" width="20" height="21" rx="0" fill="#eef0f3" stroke="#c9cdd4" stroke-width="0.6"/><text x="308.0" y="729.5" font-family="Helvetica,Arial,sans-serif" font-size="8.4" fill="#999" text-anchor="middle" font-weight="bold">7</text><path d="M140.0,725.5 H163.0 V704.5 H186.0" stroke="#c9cdd4" stroke-width="1" fill="none"/><rect x="186.0" y="750.0" width="132" height="21" rx="2" fill="#ffffff" stroke="#c9cdd4" stroke-width="0.8"/><text x="192.0" y="764.5" font-family="Helvetica,Arial,sans-serif" font-size="8.4" fill="#0B1F3A" text-anchor="start" font-weight="normal">(10) LH Glue Fac.</text><rect x="298.0" y="750.0" width="20" height="21" rx="0" fill="#eef0f3" stroke="#c9cdd4" stroke-width="0.6"/><text x="308.0" y="764.5" font-family="Helvetica,Arial,sans-serif" font-size="8.4" fill="#999" text-anchor="middle" font-weight="bold">5</text><rect x="186.0" y="771.0" width="132" height="21" rx="2" fill="#FBF1D6" stroke="#C8A24B" stroke-width="1"/><text x="192.0" y="785.5" font-family="Helvetica,Arial,sans-serif" font-size="8.4" fill="#0B1F3A" text-anchor="start" font-weight="bold">(8) Marcelo's</text><rect x="298.0" y="771.0" width="20" height="21" rx="0" fill="#C8A24B" stroke="#c9cdd4" stroke-width="0.6"/><text x="308.0" y="785.5" font-family="Helvetica,Arial,sans-serif" font-size="8.4" fill="#ffffff" text-anchor="middle" font-weight="bold">9</text><path d="M140.0,760.5 H163.0 V760.5 H186.0" stroke="#c9cdd4" stroke-width="1" fill="none"/><rect x="364.0" y="620.5" width="132" height="21" rx="2" fill="#ffffff" stroke="#c9cdd4" stroke-width="0.8"/><text x="370.0" y="635.0" font-family="Helvetica,Arial,sans-serif" font-size="8.4" fill="#0B1F3A" text-anchor="start" font-weight="normal">(7) Pocket Fizz</text><rect x="476.0" y="620.5" width="20" height="21" rx="0" fill="#eef0f3" stroke="#c9cdd4" stroke-width="0.6"/><text x="486.0" y="635.0" font-family="Helvetica,Arial,sans-serif" font-size="8.4" fill="#999" text-anchor="middle" font-weight="bold">7</text><rect x="364.0" y="641.5" width="132" height="21" rx="2" fill="#FBF1D6" stroke="#C8A24B" stroke-width="1"/><text x="370.0" y="656.0" font-family="Helvetica,Arial,sans-serif" font-size="8.4" fill="#0B1F3A" text-anchor="start" font-weight="bold">(3) Bus Stop</text><rect x="476.0" y="641.5" width="20" height="21" rx="0" fill="#C8A24B" stroke="#c9cdd4" stroke-width="0.6"/><text x="486.0" y="656.0" font-family="Helvetica,Arial,sans-serif" font-size="8.4" fill="#ffffff" text-anchor="middle" font-weight="bold">9</text><path d="M318.0,613.5 H341.0 V631.0 H364.0" stroke="#c9cdd4" stroke-width="1" fill="none"/><path d="M318.0,669.5 H341.0 V652.0 H364.0" stroke="#c9cdd4" stroke-width="1" fill="none"/><rect x="364.0" y="722.0" width="132" height="21" rx="2" fill="#ffffff" stroke="#c9cdd4" stroke-width="0.8"/><text x="370.0" y="736.5" font-family="Helvetica,Arial,sans-serif" font-size="8.4" fill="#0B1F3A" text-anchor="start" font-weight="normal">(14) Temple</text><rect x="476.0" y="722.0" width="20" height="21" rx="0" fill="#eef0f3" stroke="#c9cdd4" stroke-width="0.6"/><text x="486.0" y="736.5" font-family="Helvetica,Arial,sans-serif" font-size="8.4" fill="#999" text-anchor="middle" font-weight="bold">6</text><rect x="364.0" y="743.0" width="132" height="21" rx="2" fill="#FBF1D6" stroke="#C8A24B" stroke-width="1"/><text x="370.0" y="757.5" font-family="Helvetica,Arial,sans-serif" font-size="8.4" fill="#0B1F3A" text-anchor="start" font-weight="bold">(8) Marcelo's</text><rect x="476.0" y="743.0" width="20" height="21" rx="0" fill="#C8A24B" stroke="#c9cdd4" stroke-width="0.6"/><text x="486.0" y="757.5" font-family="Helvetica,Arial,sans-serif" font-size="8.4" fill="#ffffff" text-anchor="middle" font-weight="bold">9</text><path d="M318.0,704.5 H341.0 V732.5 H364.0" stroke="#c9cdd4" stroke-width="1" fill="none"/><path d="M318.0,781.5 H341.0 V753.5 H364.0" stroke="#c9cdd4" stroke-width="1" fill="none"/><rect x="542.0" y="631.0" width="132" height="21" rx="2" fill="#ffffff" stroke="#c9cdd4" stroke-width="0.8"/><text x="548.0" y="645.5" font-family="Helvetica,Arial,sans-serif" font-size="8.4" fill="#0B1F3A" text-anchor="start" font-weight="normal">(3) Bus Stop</text><rect x="654.0" y="631.0" width="20" height="21" rx="0" fill="#eef0f3" stroke="#c9cdd4" stroke-width="0.6"/><text x="664.0" y="645.5" font-family="Helvetica,Arial,sans-serif" font-size="8.4" fill="#999" text-anchor="middle" font-weight="bold">8</text><rect x="542.0" y="652.0" width="132" height="21" rx="2" fill="#FBF1D6" stroke="#C8A24B" stroke-width="1"/><text x="548.0" y="666.5" font-family="Helvetica,Arial,sans-serif" font-size="8.4" fill="#0B1F3A" text-anchor="start" font-weight="bold">(2) El Farolito</text><rect x="654.0" y="652.0" width="20" height="21" rx="0" fill="#C8A24B" stroke="#c9cdd4" stroke-width="0.6"/><text x="664.0" y="666.5" font-family="Helvetica,Arial,sans-serif" font-size="8.4" fill="#ffffff" text-anchor="middle" font-weight="bold">9</text><path d="M496.0,652.0 H519.0 V641.5 H542.0" stroke="#c9cdd4" stroke-width="1" fill="none"/><rect x="542.0" y="732.5" width="132" height="21" rx="2" fill="#ffffff" stroke="#c9cdd4" stroke-width="0.8"/><text x="548.0" y="747.0" font-family="Helvetica,Arial,sans-serif" font-size="8.4" fill="#0B1F3A" text-anchor="start" font-weight="normal">(8) Marcelo's</text><rect x="654.0" y="732.5" width="20" height="21" rx="0" fill="#eef0f3" stroke="#c9cdd4" stroke-width="0.6"/><text x="664.0" y="747.0" font-family="Helvetica,Arial,sans-serif" font-size="8.4" fill="#999" text-anchor="middle" font-weight="bold">8</text><rect x="542.0" y="753.5" width="132" height="21" rx="2" fill="#FBF1D6" stroke="#C8A24B" stroke-width="1"/><text x="548.0" y="768.0" font-family="Helvetica,Arial,sans-serif" font-size="8.4" fill="#0B1F3A" text-anchor="start" font-weight="bold">(4) Hall Monitors</text><rect x="654.0" y="753.5" width="20" height="21" rx="0" fill="#C8A24B" stroke="#c9cdd4" stroke-width="0.6"/><text x="664.0" y="768.0" font-family="Helvetica,Arial,sans-serif" font-size="8.4" fill="#ffffff" text-anchor="middle" font-weight="bold">9</text><path d="M496.0,753.5 H519.0 V743.0 H542.0" stroke="#c9cdd4" stroke-width="1" fill="none"/><rect x="720.0" y="692.2" width="132" height="21" rx="2" fill="#FBF1D6" stroke="#C8A24B" stroke-width="1"/><text x="726.0" y="706.8" font-family="Helvetica,Arial,sans-serif" font-size="8.4" fill="#0B1F3A" text-anchor="start" font-weight="bold">(2) El Farolito</text><rect x="832.0" y="692.2" width="20" height="21" rx="0" fill="#C8A24B" stroke="#c9cdd4" stroke-width="0.6"/><text x="842.0" y="706.8" font-family="Helvetica,Arial,sans-serif" font-size="8.4" fill="#ffffff" text-anchor="middle" font-weight="bold">9</text><rect x="720.0" y="713.2" width="132" height="21" rx="2" fill="#ffffff" stroke="#c9cdd4" stroke-width="0.8"/><text x="726.0" y="727.8" font-family="Helvetica,Arial,sans-serif" font-size="8.4" fill="#0B1F3A" text-anchor="start" font-weight="normal">(4) Hall Monitors</text><rect x="832.0" y="713.2" width="20" height="21" rx="0" fill="#eef0f3" stroke="#c9cdd4" stroke-width="0.6"/><text x="842.0" y="727.8" font-family="Helvetica,Arial,sans-serif" font-size="8.4" fill="#999" text-anchor="middle" font-weight="bold">8</text><path d="M674.0,662.5 H697.0 V702.8 H720.0" stroke="#c9cdd4" stroke-width="1" fill="none"/><path d="M674.0,764.0 H697.0 V723.8 H720.0" stroke="#c9cdd4" stroke-width="1" fill="none"/><text x="898.0" y="566.0" font-family="Helvetica,Arial,sans-serif" font-size="9" fill="#6b7280" text-anchor="start" font-weight="bold">B-side final</text><rect x="898.0" y="681.8" width="132" height="21" rx="2" fill="#ffffff" stroke="#c9cdd4" stroke-width="0.8"/><text x="904.0" y="696.2" font-family="Helvetica,Arial,sans-serif" font-size="8.4" fill="#0B1F3A" text-anchor="start" font-weight="normal">(2) El Farolito</text><rect x="1010.0" y="681.8" width="20" height="21" rx="0" fill="#eef0f3" stroke="#c9cdd4" stroke-width="0.6"/><text x="1020.0" y="696.2" font-family="Helvetica,Arial,sans-serif" font-size="8.4" fill="#999" text-anchor="middle" font-weight="bold">8</text><rect x="898.0" y="702.8" width="132" height="21" rx="2" fill="#FBF1D6" stroke="#C8A24B" stroke-width="1"/><text x="904.0" y="717.2" font-family="Helvetica,Arial,sans-serif" font-size="8.4" fill="#0B1F3A" text-anchor="start" font-weight="bold">(6) Pilsner</text><rect x="1010.0" y="702.8" width="20" height="21" rx="0" fill="#C8A24B" stroke="#c9cdd4" stroke-width="0.6"/><text x="1020.0" y="717.2" font-family="Helvetica,Arial,sans-serif" font-size="8.4" fill="#ffffff" text-anchor="middle" font-weight="bold">9</text><path d="M852.0,702.8 H875.0 V692.2 H898.0" stroke="#c9cdd4" stroke-width="1" fill="none"/><rect x="724.0" y="216.1" width="150" height="70" rx="6" fill="#FBF3DA" stroke="#C8A24B" stroke-width="1.8"/><text x="799.0" y="231.1" font-family="Helvetica,Arial,sans-serif" font-size="9" fill="#0B1F3A" text-anchor="middle" font-weight="bold">GRAND FINAL</text><text x="799.0" y="246.1" font-family="Helvetica,Arial,sans-serif" font-size="7.6" fill="#6b7280" text-anchor="middle" font-weight="normal">(1) Rawhides  vs  (6) Pilsner</text><text x="799.0" y="263.1" font-family="Helvetica,Arial,sans-serif" font-size="11" fill="#C8A24B" text-anchor="middle" font-weight="bold">🏆 Rawhides</text><text x="799.0" y="276.1" font-family="Helvetica,Arial,sans-serif" font-size="8" fill="#0B1F3A" text-anchor="middle" font-weight="normal">9-7</text><path d="M674.0,246.1 H699.0 V246.1 H724.0" stroke="#c9cdd4" stroke-width="1" fill="none"/></svg>